<svg xmlns="http://www.w3.org/2000/svg" fill="currentColor" width="16px" height="16px" viewBox="0 0 16 16">
<path clip-rule="evenodd" fill-rule="evenodd" d="M 1.871094 12.359375 C 1.871094 12.78125 1.527344 13.125 1.101562 13.125 C 0.679688 13.125 0.335938 12.78125 0.335938 12.359375 C 0.335938 11.933594 0.679688 11.589844 1.101562 11.589844 C 1.527344 11.589844 1.871094 11.933594 1.871094 12.359375 Z M 1.871094 12.359375 "/>
<path clip-rule="evenodd" fill-rule="evenodd" d="M 9.125 10.25 C 9.125 10.671875 8.78125 11.015625 8.359375 11.015625 C 7.933594 11.015625 7.59375 10.671875 7.59375 10.25 C 7.59375 9.824219 7.933594 9.480469 8.359375 9.480469 C 8.78125 9.480469 9.125 9.824219 9.125 10.25 Z M 9.125 10.25 "/>
<path clip-rule="evenodd" fill-rule="evenodd" d="M 6.269531 7.644531 C 6.269531 8.070312 5.925781 8.410156 5.503906 8.410156 C 5.078125 8.410156 4.738281 8.070312 4.738281 7.644531 C 4.738281 7.222656 5.078125 6.878906 5.503906 6.878906 C 5.925781 6.878906 6.269531 7.222656 6.269531 7.644531 Z M 6.269531 7.644531 "/>
<path clip-rule="evenodd" fill-rule="evenodd" d="M 4.671875 8.257812 L 1.742188 11.355469 C 1.722656 11.523438 1.800781 11.652344 2.074219 11.667969 L 5.003906 8.574219 C 4.980469 8.347656 4.84375 8.273438 4.671875 8.257812 Z M 4.671875 8.257812 "/>
<path clip-rule="evenodd" fill-rule="evenodd" d="M 7.710938 9.375 L 6.496094 8.214844 C 6.289062 8.210938 6.191406 8.335938 6.179688 8.546875 L 7.40625 9.71875 C 7.664062 9.714844 7.757812 9.589844 7.710938 9.375 Z M 7.710938 9.375 "/>
<path clip-rule="evenodd" fill-rule="evenodd" d="M 1.175781 11.652344 C 1.523438 11.652344 1.804688 11.9375 1.804688 12.285156 C 1.804688 12.628906 1.523438 12.914062 1.175781 12.914062 C 0.828125 12.914062 0.546875 12.628906 0.546875 12.285156 C 0.546875 11.9375 0.828125 11.652344 1.175781 11.652344 M 1.175781 11.195312 C 0.574219 11.195312 0.0898438 11.683594 0.0898438 12.285156 C 0.0898438 12.882812 0.574219 13.371094 1.175781 13.371094 C 1.777344 13.371094 2.265625 12.882812 2.265625 12.285156 C 2.265625 11.683594 1.777344 11.195312 1.175781 11.195312 Z M 1.175781 11.195312 "/>
<path clip-rule="evenodd" fill-rule="evenodd" d="M 5.570312 7.015625 C 5.917969 7.015625 6.199219 7.296875 6.199219 7.644531 C 6.199219 7.992188 5.917969 8.273438 5.570312 8.273438 C 5.222656 8.273438 4.941406 7.992188 4.941406 7.644531 C 4.941406 7.296875 5.222656 7.015625 5.570312 7.015625 M 5.570312 6.558594 C 4.96875 6.558594 4.480469 7.042969 4.480469 7.644531 C 4.480469 8.246094 4.96875 8.734375 5.570312 8.734375 C 6.171875 8.734375 6.660156 8.246094 6.660156 7.644531 C 6.660156 7.042969 6.171875 6.558594 5.570312 6.558594 Z M 5.570312 6.558594 "/>
<path clip-rule="evenodd" fill-rule="evenodd" d="M 8.359375 9.621094 C 8.707031 9.621094 8.988281 9.902344 8.988281 10.25 C 8.988281 10.597656 8.707031 10.878906 8.359375 10.878906 C 8.011719 10.878906 7.726562 10.597656 7.726562 10.25 C 7.726562 9.902344 8.011719 9.621094 8.359375 9.621094 M 8.359375 9.160156 C 7.757812 9.160156 7.269531 9.648438 7.269531 10.25 C 7.269531 10.851562 7.757812 11.335938 8.359375 11.335938 C 8.960938 11.335938 9.445312 10.851562 9.445312 10.25 C 9.445312 9.648438 8.960938 9.160156 8.359375 9.160156 Z M 8.359375 9.160156 "/>
<path clip-rule="evenodd" fill-rule="evenodd" d="M 14.804688 2.894531 C 15.152344 2.894531 15.433594 3.175781 15.433594 3.523438 C 15.433594 3.871094 15.152344 4.152344 14.804688 4.152344 C 14.457031 4.152344 14.175781 3.871094 14.175781 3.523438 C 14.175781 3.175781 14.457031 2.894531 14.804688 2.894531 M 14.804688 2.433594 C 14.203125 2.433594 13.71875 2.921875 13.71875 3.523438 C 13.71875 4.125 14.203125 4.613281 14.804688 4.613281 C 15.40625 4.613281 15.894531 4.125 15.894531 3.523438 C 15.894531 2.921875 15.40625 2.433594 14.804688 2.433594 Z M 14.804688 2.433594 "/>
<path clip-rule="evenodd" fill-rule="evenodd" d="M 14.351562 4.308594 C 14.328125 4.078125 14.1875 4.007812 14.015625 3.992188 L 11.085938 7.085938 L 8.886719 9.40625 C 8.871094 9.578125 8.949219 9.707031 9.21875 9.722656 L 12.152344 6.628906 Z M 14.351562 4.308594 "/>
<path clip-rule="evenodd" fill-rule="evenodd" d="M 15.570312 3.523438 C 15.570312 3.945312 15.230469 4.289062 14.804688 4.289062 C 14.382812 4.289062 14.039062 3.945312 14.039062 3.523438 C 14.039062 3.101562 14.382812 2.757812 14.804688 2.757812 C 15.230469 2.757812 15.570312 3.101562 15.570312 3.523438 Z M 15.570312 3.523438 "/>
</svg>
